<svg width="16" height="14" viewBox="0 0 16 14" fill="none" xmlns="http://www.w3.org/2000/svg">
<path d="M15.1177 2.75388C14.8773 2.21498 14.5307 1.72664 14.0973 1.31618C13.6636 0.904503 13.1522 0.577348 12.5909 0.352507C12.0089 0.118435 11.3847 -0.00137692 10.7546 2.74634e-05C9.87045 2.74634e-05 9.00786 0.234435 8.25825 0.677204C8.07892 0.783122 7.90856 0.899457 7.74716 1.02621C7.58576 0.899457 7.41539 0.783122 7.23606 0.677204C6.48645 0.234435 5.62386 2.74634e-05 4.73975 2.74634e-05C4.10312 2.74634e-05 3.48622 0.118099 2.90339 0.352507C2.34029 0.578232 1.83278 0.90293 1.397 1.31618C0.963008 1.72617 0.616325 2.21463 0.376598 2.75388C0.127326 3.31472 0 3.91029 0 4.52322C0 5.10143 0.121946 5.70394 0.364045 6.31687C0.56669 6.82909 0.857208 7.36042 1.22843 7.89695C1.81664 8.74603 2.62542 9.63157 3.62969 10.5293C5.29389 12.0173 6.94195 13.0452 7.01189 13.0869L7.43691 13.3508C7.62521 13.4672 7.86731 13.4672 8.05561 13.3508L8.48063 13.0869C8.55056 13.0435 10.1968 12.0173 11.8628 10.5293C12.8671 9.63157 13.6759 8.74603 14.2641 7.89695C14.6353 7.36042 14.9276 6.82909 15.1285 6.31687C15.3706 5.70394 15.4925 5.10143 15.4925 4.52322C15.4943 3.91029 15.367 3.31472 15.1177 2.75388Z" fill="white"/>
</svg>
